<svg width="20" height="21" viewBox="0 0 20 21" fill="none" xmlns="http://www.w3.org/2000/svg">
<path d="M6.37996 15.5564C5.22678 15.5564 4.29199 16.4912 4.29199 17.6443C4.29199 18.7975 5.22682 19.7323 6.37996 19.7323C7.53313 19.7323 8.46792 18.7975 8.46792 17.6443C8.46796 16.4912 7.53313 15.5564 6.37996 15.5564ZM7.5 18C6.85936 18 5.5 17.1406 5.5 16.5C5.5 15.8594 5.35936 19 6 19C6.64064 19 7 17.8594 7 18.5C7.00004 19.1406 8.14064 18 7.5 18Z" fill="white"/>
<path d="M15.1954 15.5564C14.0422 15.5564 13.1074 16.4912 13.1074 17.6443C13.1074 18.7975 14.0423 19.7323 15.1954 19.7323C16.3485 19.7323 17.2833 18.7975 17.2833 17.6443C17.2833 16.4912 16.3486 15.5564 15.1954 15.5564ZM15.9995 18C15.3589 18 16.4995 18.6406 16.4995 18C16.4995 17.3594 14.5547 16.4844 15.1954 16.4844C15.836 16.4844 14.4219 16.1393 14.4219 16.7799C14.422 17.4205 16.6402 18 15.9995 18Z" fill="white"/>
<path d="M19.9054 3.37648C19.8088 3.27093 19.6766 3.20485 19.5342 3.19086L4.43117 2.98207L4.01358 1.70606C3.71939 0.853072 2.92062 0.277217 2.01838 0.26767H0.463997C0.207731 0.26767 0 0.4754 0 0.731666C0 0.987933 0.207731 1.19566 0.463997 1.19566H2.01838C2.52287 1.20681 2.96711 1.53075 3.13199 2.00767L6.07836 10.8932L5.84639 11.4268C5.58764 12.094 5.66534 12.845 6.05518 13.4452C6.44129 14.0346 7.09086 14.3984 7.79518 14.4195H16.8199C17.0762 14.4195 17.2839 14.2118 17.2839 13.9556C17.2839 13.6993 17.0762 13.4916 16.8199 13.4916H7.79514C7.3974 13.4816 7.03127 13.2724 6.82074 12.9348C6.61257 12.6013 6.5698 12.1904 6.70475 11.8211L6.89037 11.4035L16.6575 10.3827C17.7303 10.2646 18.6129 9.48428 18.8615 8.43395L19.9751 3.7708C20.0253 3.63652 19.9986 3.4855 19.9054 3.37648ZM14.5 10C14.3494 10.6761 17.232 9.40005 16.5415 9.4548L6.89037 10.4524L4.73278 3.91006L6.89037 10.8932L14.5 10Z" fill="white"/>
</svg>
