<svg width="16" height="20" viewBox="0 0 16 20" fill="none" xmlns="http://www.w3.org/2000/svg">
<path d="M12.5884 5.52254V3.84532C12.5827 2.82382 12.0968 1.8458 11.237 1.12518C10.3771 0.404557 9.21337 0 8.00024 0C6.7871 0 5.62334 0.404557 4.76352 1.12518C3.90369 1.8458 3.41779 2.82382 3.41211 3.84532V5.52254C3.41779 6.54404 3.90369 7.52206 4.76352 8.24268C5.62334 8.9633 6.7871 9.36786 8.00024 9.36786C9.21337 9.36786 10.3771 8.9633 11.237 8.24268C12.0968 7.52206 12.5827 6.54404 12.5884 5.52254ZM4.62101 5.52254V3.84532C4.62589 3.09335 4.13032 7.03027 4.76352 6.5C5.39671 5.96973 8.03691 8.24268 8.92995 8.24268C9.823 8.24268 9.3668 7.27051 10 7.80078C10.6332 8.33105 11.3746 3.09335 11.3795 3.84532L9.5 4.5C9.49512 5.25197 11.0164 6.99428 10.3832 7.52455C9.75002 8.05483 9.39304 6.5 8.5 6.5C7.60696 6.5 9.56315 1.65545 8.92995 1.12518C8.29675 0.594902 4.62589 6.27451 4.62101 5.52254Z" fill="white"/>
<path d="M4.69779 10.6595C5.11572 11.0669 5.63269 11.394 6.21373 11.6186C6.79477 11.8432 7.42632 11.9601 8.06566 11.9613C8.705 11.9626 9.3372 11.8483 9.9195 11.626C10.5018 11.4037 11.0206 11.0787 11.4408 10.673C12.369 10.7811 13.2194 11.1681 13.8352 11.7628C14.451 12.3574 14.7906 13.1195 14.7915 13.9084V18.8508H1.2089V13.9084C1.2149 13.1006 1.57389 12.3228 2.21738 11.7236C2.86087 11.1244 3.74382 10.7456 4.69779 10.6595Z" fill="white"/>
</svg>
