<svg width="8" height="8" viewBox="0 0 8 8" fill="none" xmlns="http://www.w3.org/2000/svg">
<path d="M3.52303 0C1.58048 0 0 1.58048 0 3.52303C0 5.46569 1.58048 7.04606 3.52303 7.04606C5.46569 7.04606 7.04606 5.46569 7.04606 3.52303C7.04606 1.58048 5.46569 0 3.52303 0ZM3.52303 6.39567C1.93908 6.39567 0.650406 5.107 0.650406 3.52305C0.650406 1.93909 1.93908 0.650406 3.52303 0.650406C5.10698 0.650406 6.39566 1.93908 6.39566 3.52303C6.39566 5.10698 5.10698 6.39567 3.52303 6.39567Z" fill="#7D7C7C"/>
<path d="M7.90498 7.44486L6.04048 5.58036C5.91343 5.45332 5.70768 5.45332 5.58064 5.58036C5.45359 5.7073 5.45359 5.91327 5.58064 6.04021L7.44514 7.90471C7.50865 7.96822 7.59181 7.99999 7.67506 7.99999C7.7582 7.99999 7.84145 7.96822 7.90498 7.90471C8.03203 7.77777 8.03203 7.5718 7.90498 7.44486Z" fill="#7D7C7C"/>
</svg>
