<svg width="11" height="11" viewBox="0 0 11 11" fill="none" xmlns="http://www.w3.org/2000/svg">
<g clip-path="url(#clip0)">
<path d="M9.83827 3.96409L6.63227 3.68272L5.35877 0.884259C5.2696 0.68832 4.97601 0.68832 4.88686 0.884259L3.61336 3.6827L0.40736 3.96407C0.182877 3.98377 0.0921556 4.24799 0.261529 4.38878L2.68047 6.39969L1.97253 9.37206C1.92295 9.58017 2.16046 9.74348 2.35431 9.63455L5.12277 8.07893L7.89126 9.63455C8.08509 9.74348 8.32264 9.58017 8.27306 9.37206L7.56514 6.39971L9.98408 4.3888C10.1535 4.24801 10.0628 3.98379 9.83827 3.96409Z" fill="#FFDC64"/>
<path d="M5.35877 0.884259C5.2696 0.68832 4.97601 0.68832 4.88686 0.884259L3.61336 3.6827L0.40736 3.96407C0.182877 3.98377 0.0921556 4.24799 0.261529 4.38878L2.68047 6.39969L1.97253 9.37206C1.92295 9.58017 2.16046 9.74348 2.35431 9.63455L2.97221 9.28734C3.05774 5.95597 4.69343 3.61 5.98844 2.26795L5.35877 0.884259Z" fill="#FFC850"/>
<path d="M10.2009 4.08738C10.15 3.93895 10.0163 3.83778 9.85204 3.82336L6.73436 3.54973L6.11636 2.1917C6.08371 2.12 5.99588 2.08687 5.9201 2.11778C5.84433 2.14865 5.80936 2.2318 5.84198 2.30348L6.49508 3.7386C6.51671 3.78612 6.56405 3.81867 6.61848 3.82344L9.82448 4.10481C9.88809 4.11039 9.91026 4.15555 9.91685 4.1747C9.92342 4.19385 9.93354 4.2427 9.88554 4.2826L7.46658 6.29355C7.42549 6.3277 7.40743 6.38034 7.41946 6.43082L8.1274 9.40312C8.14144 9.46212 8.10292 9.49602 8.08568 9.50786C8.06847 9.51969 8.02254 9.54395 7.96755 9.51302L5.19905 7.95741C5.15206 7.93102 5.09351 7.93102 5.04654 7.95741L2.27804 9.51302C2.22307 9.54397 2.17714 9.51969 2.15992 9.50786C2.14269 9.49602 2.10415 9.46211 2.11819 9.40314L2.48362 7.86884C2.50177 7.79268 2.45122 7.71703 2.37076 7.69987C2.29015 7.68272 2.21035 7.73054 2.1922 7.80668L1.82677 9.341C1.79052 9.49325 1.85089 9.64482 1.98431 9.73657C2.11773 9.82828 2.28874 9.8358 2.43051 9.75612L5.12275 8.24334L7.81499 9.75612C7.88031 9.79281 7.95182 9.81102 8.02298 9.81102C8.10633 9.81102 8.18922 9.78605 8.26118 9.73657C8.39463 9.64482 8.45498 9.49327 8.41873 9.34098L7.7303 6.45053L10.0827 4.49503C10.2066 4.39201 10.2519 4.23582 10.2009 4.08738Z" fill="white"/>
<path d="M2.33646 7.20168C2.31832 7.27784 2.36887 7.3535 2.44933 7.37065C2.46041 7.373 2.47144 7.37415 2.48231 7.37415C2.55063 7.37415 2.61225 7.32954 2.62789 7.26384L2.82646 6.43008C2.83849 6.37959 2.8204 6.32693 2.77933 6.29281L0.360413 4.2819C0.312413 4.242 0.322531 4.19315 0.329124 4.174C0.335696 4.15485 0.357844 4.10969 0.421478 4.10411L3.62745 3.82274C3.68189 3.81797 3.72923 3.78542 3.75086 3.73791L5.02434 0.939488C5.04962 0.883963 5.10184 0.87795 5.12311 0.87795C5.1444 0.87795 5.19662 0.883944 5.2219 0.939469L5.56779 1.69953C5.60046 1.77123 5.68829 1.80434 5.76405 1.77345C5.83982 1.74258 5.87479 1.65942 5.84217 1.58775L5.49627 0.827665C5.43102 0.68433 5.28806 0.595276 5.12311 0.595276C4.9582 0.595276 4.81522 0.68433 4.74997 0.827684L3.51154 3.54904L0.393893 3.82263C0.229679 3.83704 0.0959769 3.9382 0.0449898 4.08664C-0.00597742 4.23507 0.0393334 4.39127 0.163256 4.49429L2.51556 6.44981L2.33646 7.20168Z" fill="white"/>
</g>
<defs>
<clipPath id="clip0">
<rect width="10.1974" height="9.64991" fill="white" transform="translate(0.0244141 0.37854)"/>
</clipPath>
</defs>
</svg>
