<svg width="11" height="10" viewBox="0 0 11 10" fill="none" xmlns="http://www.w3.org/2000/svg">
<g clip-path="url(#clip0)">
<path fill-rule="evenodd" clip-rule="evenodd" d="M5.09836 6.02118V7.7004L2.3299 9.25603C2.13605 9.36497 1.89854 9.20166 1.94811 8.99354L2.65606 6.02118L0.237114 4.01027C0.0677415 3.86948 0.158463 3.60525 0.382946 3.58556L3.58894 3.30418L4.86245 0.505744C4.90762 0.406453 4.91944 0.356007 4.93171 0.355896C4.94365 0.355789 4.95602 0.403371 5 0.500018L5.09836 4.34659V6.02118ZM5.22697 7.63993C5.15993 7.68057 5.11561 7.70191 5.09836 7.7004L6.56494 8.52448C7.26864 8.93266 7.96724 9.31246 7.86684 9.25603L6.56494 8.52448C5.91011 8.14465 5.25086 7.74024 5.22697 7.63993ZM5.22697 7.63993V7.63993ZM5.2447 7.62906C5.23864 7.63281 5.2327 7.63646 5.22697 7.63993L5.2447 7.62906ZM6.3458 6.83525C6.70079 6.5666 7.09991 6.25889 7.5 5.9476V5.9476C8.4022 5.24566 9.30937 4.52554 9.72676 4.19421C9.75517 4.17166 9.7813 4.15091 9.80501 4.13209L9.95967 4.01028C9.98106 3.9925 9.92309 4.03839 9.80501 4.13209L7.5 5.9476L6.3458 6.83525Z" fill="#FFDC64"/>
<path d="M5 0.5C4.91083 0.304061 4.95159 0.309813 4.86245 0.505752L3.58894 3.30419L0.382946 3.58556C0.158463 3.60526 0.0677415 3.86948 0.237114 4.01027L2.65606 6.02119L1.94811 8.99355C1.89854 9.20166 2.13605 9.36498 2.3299 9.25604L2.9478 8.90883C3.03332 5.57746 3.70499 3.84205 5 2.5V0.5Z" fill="#FFC850"/>
<path d="M10.1765 3.70884C10.1255 3.56041 9.99188 3.45924 9.82763 3.44482L6.70994 3.17119L6.09194 1.81316C6.0593 1.74146 5.97147 1.70833 5.89568 1.73924C5.81992 1.77011 5.78495 1.85326 5.81757 1.92494L6.47066 3.36006C6.49229 3.40758 6.53964 3.44013 6.59407 3.4449L9.80006 3.72627C9.86368 3.73185 9.88585 3.77701 9.89244 3.79616C9.89901 3.81531 9.90913 3.86416 9.86113 3.90406L7.44217 5.91501C7.40108 5.94916 7.38301 6.0018 7.39504 6.05228L8.10299 9.02458C8.11703 9.08358 8.07851 9.11748 8.06126 9.12932C8.04405 9.14115 7.99813 9.16541 7.94314 9.13448L5.17463 7.57887C5.12765 7.55248 5.06909 7.55248 5.02213 7.57887L2.25363 9.13448C2.19866 9.16543 2.15273 9.14115 2.1355 9.12932C2.11827 9.11748 2.07974 9.08357 2.09378 9.0246L2.45921 7.4903C2.47735 7.41414 2.42681 7.33849 2.34634 7.32133C2.26574 7.30418 2.18593 7.352 2.16779 7.42814L1.80235 8.96246C1.7661 9.11471 1.82647 9.26628 1.9599 9.35803C2.09332 9.44974 2.26432 9.45726 2.40609 9.37758L5.09833 7.8648L7.79057 9.37758C7.8559 9.41427 7.9274 9.43248 7.99856 9.43248C8.08192 9.43248 8.16481 9.40751 8.23677 9.35803C8.37021 9.26628 8.43056 9.11473 8.39431 8.96244L7.70589 6.07199L10.0583 4.11649C10.1822 4.01347 10.2275 3.85728 10.1765 3.70884Z" fill="white"/>
<path d="M2.31205 6.82314C2.29391 6.8993 2.34445 6.97496 2.42492 6.99211C2.43599 6.99446 2.44703 6.99561 2.4579 6.99561C2.52622 6.99561 2.58784 6.951 2.60347 6.8853L2.80204 6.05154C2.81407 6.00105 2.79599 5.94839 2.75492 5.91427L0.335999 3.90336C0.287999 3.86346 0.298117 3.81461 0.30471 3.79546C0.311282 3.77631 0.33343 3.73115 0.397064 3.72557L3.60304 3.4442C3.65747 3.43943 3.70481 3.40688 3.72644 3.35937L4.99993 0.560948C5.0252 0.505423 5.07742 0.49941 5.0987 0.49941C5.11999 0.49941 5.17221 0.505404 5.19748 0.560929L5.54338 1.32099C5.57604 1.39269 5.66388 1.4258 5.73964 1.39491C5.8154 1.36404 5.85038 1.28088 5.81775 1.20921L5.47186 0.449125C5.40661 0.30579 5.26365 0.216736 5.0987 0.216736C4.93378 0.216736 4.7908 0.30579 4.72555 0.449144L3.48712 3.1705L0.369479 3.44409C0.205265 3.4585 0.0715629 3.55966 0.0205757 3.7081C-0.0303915 3.85653 0.0149194 4.01273 0.138842 4.11575L2.49114 6.07127L2.31205 6.82314Z" fill="white"/>
</g>
<defs>
<clipPath id="clip0">
<rect width="10.1974" height="9.64991" fill="white"/>
</clipPath>
</defs>
</svg>
